<?xml version="1.0" encoding="utf-8"?>
<!-- Generator: Adobe Illustrator 16.0.0, SVG Export Plug-In . SVG Version: 6.00 Build 0)  -->
<!DOCTYPE svg PUBLIC "-//W3C//DTD SVG 1.1//EN" "http://www.w3.org/Graphics/SVG/1.1/DTD/svg11.dtd">
<svg version="1.1" id="Blank" xmlns="http://www.w3.org/2000/svg" xmlns:xlink="http://www.w3.org/1999/xlink" x="0px" y="0px"
	 width="350px" height="400px" viewBox="0 0 350 400" enable-background="new 0 0 350 400" xml:space="preserve">
<path fill="#333333" d="M11,13.997v260h324v-260H11z M312.979,220.463c-1.302,5.367-7.208,11.061-12.62,12.162
	C285.807,235.591,251.332,240,175,240s-110.805-4.41-125.358-7.376c-5.412-1.103-11.319-6.797-12.62-12.164
	C34.072,208.294,30,182.836,30,135s4.072-73.294,7.022-85.46c1.301-5.367,7.208-11.062,12.62-12.165C64.195,34.41,98.668,30,175,30
	s110.806,4.41,125.358,7.375c5.411,1.103,11.318,6.797,12.62,12.165C315.928,61.706,320,87.164,320,135
	C320,182.838,315.929,208.297,312.979,220.463z"/>
<path fill="#FFFFFF" d="M330,300c11.028,0,20-8.972,20-20V20c0-11.028-8.972-20-20-20H20C8.972,0,0,8.972,0,20v260
	c0,11.028,8.972,20,20,20h16.648v10H10c-2.761,0-5,2.238-5,5v80c0,2.762,2.239,5,5,5h330c2.762,0,5-2.238,5-5v-80
	c0-2.762-2.238-5-5-5h-28.352v-10H330z M35.016,375c0,2.762-2.239,5-5,5s-5-2.238-5-5v-40c0-2.762,2.239-5,5-5s5,2.238,5,5V375z
	 M55.031,375c0,2.762-2.239,5-5,5s-5-2.238-5-5v-40c0-2.762,2.239-5,5-5s5,2.238,5,5V375z M75.047,375c0,2.762-2.239,5-5,5
	s-5-2.238-5-5v-40c0-2.762,2.239-5,5-5s5,2.238,5,5V375z M95.063,375c0,2.762-2.239,5-5,5s-5-2.238-5-5v-40c0-2.762,2.239-5,5-5
	s5,2.238,5,5V375z M115.078,375c0,2.762-2.239,5-5,5s-5-2.238-5-5v-40c0-2.762,2.239-5,5-5s5,2.238,5,5V375z M135.094,375
	c0,2.762-2.239,5-5,5s-5-2.238-5-5v-40c0-2.762,2.239-5,5-5s5,2.238,5,5V375z M319.984,330c2.762,0,5,2.238,5,5v40
	c0,2.762-2.238,5-5,5h-150c-2.761,0-5-2.238-5-5v-40c0-2.762,2.239-5,5-5H319.984z M175,250c-84.474,0-123.385-2.724-139.463-4.428
	c-5.492-0.582-10.695-5.75-11.347-11.234C22.522,220.301,20,189.984,20,135s2.522-85.301,4.19-99.337
	c0.652-5.484,5.854-10.653,11.347-11.235C51.615,22.724,90.526,20,175,20c84.474,0,123.385,2.724,139.463,4.428
	c5.492,0.582,10.695,5.75,11.347,11.235C327.478,49.699,330,80.016,330,135c0,54.986-2.521,85.305-4.188,99.342
	c-0.651,5.483-5.854,10.65-11.347,11.232C298.386,247.277,259.474,250,175,250z"/>
</svg>
