<?xml version="1.0" encoding="utf-8"?>
<!-- Generator: Adobe Illustrator 16.0.0, SVG Export Plug-In . SVG Version: 6.00 Build 0)  -->
<!DOCTYPE svg PUBLIC "-//W3C//DTD SVG 1.1//EN" "http://www.w3.org/Graphics/SVG/1.1/DTD/svg11.dtd">
<svg version="1.1" id="Layer_1" xmlns="http://www.w3.org/2000/svg" xmlns:xlink="http://www.w3.org/1999/xlink" x="0px" y="0px"
	 width="719.178px" height="713.688px" viewBox="0 0 719.178 713.688" enable-background="new 0 0 719.178 713.688"
	 xml:space="preserve">
<path fill="#60A51C" d="M420.255,176.914l-52.5-90.933C359.47,71.632,341.122,66.716,326.774,75L15.004,255
	c-14.35,8.285-19.266,26.632-10.98,40.981l232.5,402.702c8.283,14.349,26.631,19.266,40.98,10.98l311.77-180
	c14.349-8.284,19.264-26.633,10.98-40.98l-52.5-90.934l-77.943,45l15,25.98c4.143,7.175,1.687,16.349-5.489,20.49l-181.866,105
	c-7.174,4.143-16.348,1.685-20.49-5.49l-157.5-272.797c-4.142-7.174-1.684-16.348,5.49-20.49l181.865-105
	c7.176-4.143,16.349-1.684,20.49,5.49l15,25.981L420.255,176.914z"/>
<path fill="#60A51C" d="M302.335,227.673l-142.894,82.5c-3.588,2.072-4.816,6.657-2.745,10.245l78.751,136.4
	c2.07,3.587,6.656,4.814,10.244,2.744l87.686-50.625c1.793-1.035,4.088-0.42,5.123,1.373l22.499,38.971
	c1.037,1.794,0.422,4.087-1.372,5.122l-32.477,18.751c-1.794,1.035-4.088,0.421-5.123-1.372l-9.375-16.238l-58.455,33.75
	l37.5,64.952c2.07,3.587,6.656,4.816,10.244,2.745l142.895-82.5c3.588-2.07,4.815-6.658,2.744-10.244l-78.749-136.399
	c-2.071-3.588-6.657-4.816-10.245-2.745L270.9,375.729c-1.793,1.035-4.087,0.42-5.123-1.373l-22.5-38.97
	c-1.036-1.793-0.422-4.087,1.372-5.123l32.477-18.75c1.794-1.036,4.087-0.421,5.122,1.373l9.377,16.237l58.455-33.75l-37.5-64.953
	C310.51,226.83,305.923,225.602,302.335,227.673z"/>
<polygon fill="#60A51C" points="502.755,319.808 532.755,371.77 454.812,416.77 357.312,247.895 435.255,202.895 465.254,254.856 
	491.235,239.856 378.735,45 456.678,0 719.178,454.664 641.235,499.664 528.735,304.808 "/>
</svg>
