<?xml version="1.0" encoding="utf-8"?>
<!-- Generator: Adobe Illustrator 16.0.0, SVG Export Plug-In . SVG Version: 6.00 Build 0)  -->
<!DOCTYPE svg PUBLIC "-//W3C//DTD SVG 1.1//EN" "http://www.w3.org/Graphics/SVG/1.1/DTD/svg11.dtd">
<svg version="1.1" id="Layer_1" xmlns="http://www.w3.org/2000/svg" xmlns:xlink="http://www.w3.org/1999/xlink" x="0px" y="0px"
	 width="179.35px" height="138.089px" viewBox="17.825 21.002 179.35 138.089"
	 enable-background="new 17.825 21.002 179.35 138.089" xml:space="preserve">
<path fill="#FFFFFF" d="M197.042,87.973l0.133-0.658c-14.768-2.953-29.922-2.982-39.09-2.602c1.506-5.426,1.959-11.67,1.959-18.633
	c0-9.986-3.752-17.975-9.843-24.054c1.064-3.436,2.486-11.066-1.42-20.833c0,0-6.891-2.188-22.477,8.244
	c-6.105-1.526-12.604-2.279-19.113-2.279c-7.16,0-14.395,0.912-21.143,2.763c-16.086-10.975-23.187-8.727-23.187-8.727
	c-4.636,11.59-1.77,20.171-0.898,22.303c-5.448,5.879-8.774,13.384-8.774,22.585c0,6.946,0.792,13.178,2.724,18.594
	c-9.246-0.336-23.849-0.207-38.089,2.641l0.132,0.658c14.325-2.865,29.019-2.965,38.209-2.617c0.426,1.121,0.899,2.209,1.431,3.26
	c-9.088,0.293-24.604,1.451-39.476,5.646l0.183,0.645c14.988-4.227,30.641-5.355,39.641-5.631
	c5.43,10.121,16.135,16.658,35.18,18.711c-2.703,1.815-5.46,4.903-6.578,10.129c-3.684,1.762-15.344,6.063-22.34-5.972
	c0,0-3.916-7.16-11.411-7.721c0,0-7.271-0.111-0.503,4.531c0,0,4.866,2.293,8.223,10.908c0,0,4.379,14.695,25.512,9.979v15.181
	c0,0-0.447,5.369-5.369,7.158c0,0-2.908,2.014,0.225,3.131c0,0,13.645,1.119,13.645-10.064v-16.553c0,0-0.54-6.564,2.684-8.846
	v27.188c0,0-0.223,6.486-3.578,8.947c0,0-2.237,4.024,2.684,2.908c0,0,9.395-1.343,9.842-12.304l0.214-27.514h2.257l0.216,27.514
	c0.446,10.961,9.842,12.304,9.842,12.304c4.92,1.117,2.684-2.908,2.684-2.908c-3.355-2.461-3.578-8.947-3.578-8.947v-26.953
	c3.223,2.51,2.684,8.611,2.684,8.611v16.553c0,11.184,13.646,10.064,13.646,10.064c3.131-1.117,0.226-3.131,0.226-3.131
	c-4.923-1.789-5.369-7.158-5.369-7.158v-21.697c0-8.461-3.563-12.941-7.047-15.307c20.311-2.014,30.057-8.572,34.547-18.762
	c8.896,0.244,24.906,1.328,40.222,5.648l0.182-0.646c-15.227-4.295-31.131-5.406-40.116-5.668c0.426-1.029,0.797-2.1,1.127-3.201
	C166.993,85.004,182.216,85.008,197.042,87.973z M107.027,104.242c-22.14,0-40.086-3.334-40.086-24.728
	c0-5.122,2.523-9.878,6.845-13.825c7.206-6.578,19.404-3.095,33.241-3.095c13.782,0,25.934-3.519,33.151,3.015
	c4.375,3.963,6.934,8.749,6.934,13.905C147.111,103.59,129.164,104.242,107.027,104.242z"/>
<path fill="#FFFFFF" d="M93.697,80.742c0,6.631-3.734,12.006-8.34,12.006s-8.342-5.375-8.342-12.006
	c0-6.631,3.735-12.004,8.342-12.004C89.962,68.738,93.697,74.111,93.697,80.742L93.697,80.742z"/>
<path fill="#FFFFFF" d="M91.021,80.893c0,4.42-2.491,8.002-5.561,8.002c-3.072,0-5.561-3.582-5.561-8.002
	c0-4.422,2.488-8.006,5.561-8.006C88.53,72.887,91.021,76.471,91.021,80.893L91.021,80.893z"/>
<path fill="#FFFFFF" d="M138.443,80.742c0,6.631-3.734,12.006-8.342,12.006c-4.605,0-8.34-5.375-8.34-12.006
	c0-6.631,3.733-12.004,8.34-12.004C134.709,68.738,138.443,74.111,138.443,80.742L138.443,80.742z"/>
<path fill="#FFFFFF" d="M135.766,80.893c0,4.42-2.49,8.002-5.561,8.002c-3.071,0-5.561-3.582-5.561-8.002
	c0-4.422,2.489-8.006,5.561-8.006C133.275,72.887,135.766,76.471,135.766,80.893L135.766,80.893z"/>
<path fill="#FFFFFF" d="M109.23,91.404c0,1.152-0.935,2.086-2.086,2.086s-2.086-0.934-2.086-2.086c0-1.152,0.934-2.086,2.086-2.086
	C108.297,89.318,109.23,90.252,109.23,91.404L109.23,91.404z"/>
<path fill="#FFFFFF" d="M102.285,96.678c-0.123-0.35,0.061-0.732,0.409-0.854c0.348-0.123,0.732,0.061,0.855,0.408
	c0.536,1.516,1.974,2.533,3.577,2.533c1.604,0,3.042-1.018,3.579-2.533c0.123-0.35,0.506-0.531,0.855-0.408
	c0.349,0.123,0.53,0.506,0.407,0.854c-0.725,2.049-2.672,3.426-4.842,3.426C104.957,100.104,103.011,98.727,102.285,96.678
	L102.285,96.678z"/>
</svg>
