<?xml version="1.0" encoding="utf-8"?>
<!-- Generator: Adobe Illustrator 16.0.0, SVG Export Plug-In . SVG Version: 6.00 Build 0)  -->
<!DOCTYPE svg PUBLIC "-//W3C//DTD SVG 1.1//EN" "http://www.w3.org/Graphics/SVG/1.1/DTD/svg11.dtd">
<svg version="1.1" id="Layer_1" xmlns="http://www.w3.org/2000/svg" xmlns:xlink="http://www.w3.org/1999/xlink" x="0px" y="0px"
	 width="1344.843px" height="525px" viewBox="0 0 1344.843 525" enable-background="new 0 0 1344.843 525" xml:space="preserve">
<path fill="#222222" d="M420,135V30c0-16.569-13.433-30-30-30H30C13.431,0,0,13.431,0,30v465c0,16.567,13.431,30,30,30h360
	c16.567,0,30-13.433,30-30V390h-90v30c0,8.284-6.715,15-15,15H105c-8.284,0-15-6.716-15-15V105c0-8.284,6.716-15,15-15h210
	c8.285,0,15,6.716,15,15v30H420z"/>
<path fill="#222222" d="M292.5,119.999H127.501c-4.143,0-7.5,3.357-7.5,7.5V285c0,4.143,3.357,7.499,7.5,7.499h101.25
	c2.071,0,3.75,1.681,3.75,3.751v44.999c0,2.071-1.679,3.75-3.75,3.75H191.25c-2.071,0-3.75-1.679-3.75-3.75V322.5h-67.499v75
	c0,4.142,3.357,7.5,7.5,7.5H292.5c4.143,0,7.5-3.358,7.5-7.5V240c0-4.143-3.357-7.5-7.5-7.5H191.25c-2.071,0-3.75-1.679-3.75-3.75
	l-0.001-45c0-2.071,1.679-3.75,3.75-3.75h37.501c2.071,0,3.75,1.679,3.75,3.75l0.001,18.75H300v-75.001
	C300,123.356,296.643,119.999,292.5,119.999z"/>
<polygon fill="#222222" points="420,300 420,360 330,360 330,165 420,165 420,225 450,225 450,0 540,0 540,525 450,525 450,300 "/>
<g>
	<path fill="#222222" d="M633.28,0c15.82,0,28.622,3.985,38.408,11.953l-5.625,11.865c-3.985-3.105-8.775-5.625-14.37-7.559
		c-5.596-1.934-11.588-2.9-17.974-2.9c-7.734,0-14.634,1.494-20.698,4.482s-10.957,7.046-14.678,12.173
		c-3.722,5.128-6.534,10.958-8.438,17.49c-1.904,6.534-2.856,13.521-2.856,20.962c0,5.743,0.527,11.192,1.582,16.348
		c1.055,5.157,2.798,10.079,5.229,14.766c2.431,4.688,5.435,8.716,9.009,12.085c3.573,3.37,8.071,6.051,13.491,8.042
		c5.419,1.993,11.499,2.988,18.237,2.988c6.21,0,12.041-1.011,17.49-3.032s10.137-4.614,14.063-7.778l5.098,12.744
		c-8.556,7.618-21.182,11.426-37.881,11.426c-10.078,0-19.146-1.773-27.202-5.317c-8.057-3.544-14.664-8.394-19.819-14.546
		c-5.156-6.152-9.097-13.285-11.821-21.401c-2.725-8.115-4.087-16.86-4.087-26.235c0-9.726,1.392-18.75,4.175-27.07
		c2.782-8.319,6.781-15.57,11.997-21.753c5.215-6.181,11.821-11.015,19.819-14.502C614.428,1.744,623.378,0,633.28,0z"/>
	<path fill="#222222" d="M771.884,85.781c0,6.739-0.981,13.126-2.944,19.16c-1.964,6.036-4.79,11.397-8.481,16.084
		c-3.691,4.688-8.394,8.394-14.106,11.118s-12.085,4.087-19.116,4.087c-9.435,0-17.637-2.285-24.609-6.855
		c-6.974-4.57-12.188-10.604-15.645-18.105c-3.458-7.5-5.186-15.937-5.186-25.313c0-9.316,1.743-17.768,5.229-25.356
		c3.485-7.587,8.745-13.711,15.776-18.369s15.263-6.987,24.697-6.987c5.801,0,11.118,0.865,15.952,2.593
		c4.834,1.729,8.979,4.131,12.437,7.207c3.457,3.076,6.401,6.724,8.833,10.942c2.431,4.219,4.232,8.833,5.405,13.843
		C771.298,74.839,771.884,80.156,771.884,85.781z M756.591,85.957c0-5.331-0.527-10.239-1.582-14.722s-2.695-8.554-4.922-12.217
		c-2.228-3.661-5.288-6.518-9.185-8.569c-3.897-2.05-8.452-3.076-13.667-3.076c-4.98,0-9.448,1.085-13.403,3.252
		c-3.955,2.168-7.134,5.098-9.536,8.789c-2.403,3.691-4.219,7.822-5.449,12.393s-1.846,9.375-1.846,14.414
		c0,4.981,0.615,9.698,1.846,14.15c1.23,4.454,3.046,8.468,5.449,12.041c2.402,3.575,5.595,6.416,9.58,8.525
		c3.984,2.109,8.525,3.164,13.623,3.164c5.039,0,9.478-1.055,13.315-3.164c3.837-2.109,6.869-4.966,9.097-8.569
		c2.227-3.604,3.896-7.631,5.01-12.085C756.033,95.831,756.591,91.055,756.591,85.957z"/>
	<path fill="#222222" d="M788.671,61.963c0-5.449-0.088-13.593-0.264-24.434h12.656l1.406,12.656
		c3.867-5.155,8.613-8.935,14.238-11.338c5.625-2.402,11.514-3.604,17.666-3.604c13.417,0,22.324,5.625,26.719,16.875
		c8.965-11.25,20.684-16.875,35.156-16.875c19.336,0,29.004,13.39,29.004,40.166v58.623h-14.766V78.662
		c0-2.694-0.03-4.966-0.088-6.812c-0.059-1.846-0.22-3.94-0.483-6.284c-0.264-2.343-0.615-4.276-1.055-5.801
		c-0.439-1.523-1.099-3.105-1.978-4.746c-0.879-1.64-1.92-2.929-3.12-3.867c-1.201-0.937-2.695-1.699-4.482-2.285
		c-1.788-0.585-3.823-0.879-6.108-0.879c-6.211,0-11.821,1.729-16.831,5.186c-5.01,3.458-8.481,8.116-10.415,13.975v66.885h-14.766
		V78.838c0-10.723-1.201-18.545-3.604-23.467c-2.403-4.922-7.031-7.383-13.887-7.383c-7.969,0-14.576,1.758-19.819,5.273
		c-5.244,3.516-8.716,7.91-10.415,13.184v67.588h-14.766V61.963z"/>
	<path fill="#222222" d="M945.292,174.375V37.529h13.887l0.879,12.92c7.559-10.136,17.49-15.205,29.795-15.205
		c6.913,0,13.008,1.362,18.281,4.087s9.492,6.49,12.656,11.294c3.164,4.805,5.537,10.254,7.119,16.348
		c1.582,6.095,2.373,12.715,2.373,19.863c0,6.563-0.938,12.818-2.813,18.765c-1.876,5.948-4.513,11.192-7.91,15.732
		c-3.398,4.542-7.677,8.16-12.832,10.854c-5.156,2.694-10.781,4.043-16.875,4.043c-13.359,0-23.291-5.419-29.795-16.26v52.471
		L945.292,174.375z M959.794,85.869c0,5.333,0.527,10.226,1.582,14.678c1.055,4.454,2.65,8.438,4.79,11.953
		c2.139,3.516,5.039,6.255,8.701,8.218c3.661,1.964,7.924,2.944,12.788,2.944c4.804,0,9.053-1.127,12.744-3.384
		c3.691-2.255,6.562-5.258,8.613-9.009c2.051-3.749,3.573-7.763,4.57-12.041c0.996-4.276,1.494-8.73,1.494-13.359
		c0-3.632-0.294-7.192-0.879-10.679c-0.586-3.485-1.582-6.913-2.988-10.283c-1.406-3.369-3.135-6.313-5.186-8.833
		c-2.052-2.519-4.658-4.54-7.822-6.064c-3.164-1.523-6.68-2.285-10.547-2.285c-4.864,0-9.127,0.997-12.788,2.988
		c-3.662,1.993-6.563,4.761-8.701,8.306c-2.14,3.546-3.735,7.559-4.79,12.041S959.794,80.479,959.794,85.869z"/>
	<path fill="#222222" d="M1046.542,100.811V37.529h14.766v63.457c0,8.731,1.875,14.766,5.625,18.105
		c3.749,3.34,9.901,5.01,18.457,5.01c8.438,0,14.516-1.684,18.237-5.054c3.721-3.369,5.581-9.389,5.581-18.062V37.529h14.766v63.281
		c0,12.599-3.223,21.651-9.668,27.158c-6.446,5.508-16.084,8.262-28.916,8.262s-22.515-2.782-29.048-8.35
		C1049.808,122.315,1046.542,113.291,1046.542,100.811z"/>
	<path fill="#222222" d="M1165.019,47.9v53.877c0,9.083,0.864,15,2.593,17.754c1.728,2.755,5.522,4.131,11.382,4.131
		c0.469,0,1.172-0.044,2.109-0.132c0.937-0.088,2.373-0.22,4.307-0.396s3.779-0.321,5.537-0.439l1.318,11.953
		c-8.672,0.761-14.238,1.143-16.699,1.143c-2.637,0-4.996-0.162-7.075-0.483c-2.08-0.323-3.941-0.747-5.581-1.274
		c-1.641-0.527-3.076-1.303-4.307-2.329c-1.23-1.024-2.3-2.109-3.208-3.252c-0.909-1.143-1.67-2.622-2.285-4.438
		c-0.615-1.815-1.113-3.617-1.494-5.405c-0.382-1.787-0.674-4.028-0.879-6.724c-0.206-2.694-0.338-5.287-0.396-7.778
		c-0.059-2.49-0.088-5.551-0.088-9.185V47.9h-14.678l1.143-10.371h13.535l3.867-31.201l10.898-0.791v31.992h25.576V47.9H1165.019z"
		/>
	<path fill="#222222" d="M1244.472,136.23c-13.711,0-24.521-4.54-32.432-13.623c-7.91-9.082-11.865-21.415-11.865-37.002
		c0-14.414,3.955-26.323,11.865-35.728s18.135-14.282,30.674-14.634c11.953,0,21.401,4.19,28.345,12.568
		c6.943,8.38,10.415,19.718,10.415,34.014c0,0.47-0.03,1.538-0.088,3.208c-0.059,1.67-0.088,2.799-0.088,3.384h-66.006
		c0,10.665,2.782,19.19,8.35,25.576c5.566,6.387,12.656,9.58,21.27,9.58c10.898,0,21.094-3.222,30.586-9.668l4.57,10.723
		C1271.044,132.363,1259.179,136.23,1244.472,136.23z M1215.819,78.223h51.416c0-9.96-2.256-17.622-6.768-22.983
		c-4.513-5.361-10.459-8.042-17.842-8.042c-7.325,0-13.418,2.799-18.281,8.394C1219.48,61.187,1216.64,68.73,1215.819,78.223z"/>
	<path fill="#222222" d="M1299.491,134.033V59.766c0-2.578-0.044-6.328-0.132-11.25s-0.132-8.583-0.132-10.986h12.48l1.143,16.699
		c6.094-11.132,15.469-16.699,28.125-16.699h2.813l1.055,13.447h-3.516c-8.613,0-15.279,2.505-19.995,7.515
		c-4.717,5.01-7.075,11.324-7.075,18.94v56.602H1299.491z"/>
</g>
<g>
	<path fill="#222222" d="M574.569,306.973c13.535,6.68,28.037,10.02,43.506,10.02c19.042,0,28.564-8.671,28.564-26.016
		c0-5.625-1.509-10.181-4.526-13.667c-3.019-3.485-8.512-6.226-16.479-8.218l-25.84-6.504
		c-19.746-4.979-29.619-15.526-29.619-31.641c0-12.362,4.248-21.547,12.744-27.554c8.495-6.005,20.244-9.009,35.244-9.009
		c7.852,0,15.205,0.85,22.061,2.549c6.855,1.7,12.598,3.985,17.227,6.855l-4.395,12.393c-3.926-2.167-9.127-4.101-15.601-5.801
		c-6.475-1.699-13.022-2.549-19.644-2.549c-21.212,0-31.816,7.354-31.816,22.061c0,4.981,1.626,8.98,4.878,11.997
		c3.252,3.019,8.13,5.317,14.634,6.899l24.697,5.977c10.547,2.52,18.545,6.548,23.994,12.085s8.174,13.403,8.174,23.599
		c0,13.242-4.058,23.218-12.173,29.927c-8.116,6.71-19.146,10.063-33.091,10.063c-10.43,0-19.702-1.069-27.817-3.208
		c-8.116-2.139-14.546-4.672-19.292-7.603L574.569,306.973z"/>
	<path fill="#222222" d="M749.032,321.826c-3.047,2.871-6.914,5.054-11.602,6.548c-4.688,1.494-9.522,2.241-14.502,2.241
		c-7.266,0-13.887-1.362-19.863-4.087s-10.885-6.416-14.722-11.074c-3.838-4.658-6.798-10.005-8.877-16.04
		c-2.08-6.034-3.12-12.45-3.12-19.248c0.058-6.68,1.172-13.052,3.34-19.116c2.167-6.064,5.186-11.439,9.053-16.128
		c3.867-4.687,8.745-8.407,14.634-11.162c5.889-2.753,12.318-4.131,19.292-4.131c5.566,0,10.648,0.733,15.249,2.197
		c4.6,1.465,8.275,3.516,11.03,6.152l-3.691,10.459c-6.68-4.452-14.269-6.68-22.764-6.68c-8.848,0-16.246,3.678-22.192,11.03
		c-5.947,7.354-8.921,16.598-8.921,27.729c0,11.133,2.974,20.245,8.921,27.334c5.946,7.09,13.725,10.635,23.335,10.635
		c7.676,0,14.911-2.402,21.709-7.207L749.032,321.826z"/>
	<path fill="#222222" d="M782.079,196.934v17.402h-14.766v-17.402H782.079z M782.079,231.914v96.504h-14.766v-96.504H782.079z"/>
	<path fill="#222222" d="M846.327,330.615c-13.711,0-24.521-4.54-32.432-13.623c-7.91-9.082-11.865-21.415-11.865-37.002
		c0-14.414,3.955-26.323,11.865-35.728s18.135-14.282,30.674-14.634c11.953,0,21.401,4.19,28.345,12.568
		c6.943,8.38,10.415,19.718,10.415,34.014c0,0.47-0.03,1.538-0.088,3.208c-0.059,1.67-0.088,2.799-0.088,3.384h-66.006
		c0,10.665,2.782,19.19,8.35,25.576c5.566,6.387,12.656,9.58,21.27,9.58c10.898,0,21.094-3.222,30.586-9.668l4.57,10.723
		C872.899,326.748,861.034,330.615,846.327,330.615z M817.675,272.607h51.416c0-9.961-2.256-17.622-6.768-22.983
		c-4.513-5.361-10.459-8.042-17.842-8.042c-7.325,0-13.418,2.799-18.281,8.394C821.336,255.571,818.495,263.115,817.675,272.607z"/>
	<path fill="#222222" d="M948.632,229.629c10.429,0,18.105,3.414,23.027,10.239c4.922,6.826,7.383,17.095,7.383,30.806v57.744
		h-14.766V279.99c0-4.16-0.03-7.515-0.088-10.063c-0.059-2.549-0.22-5.317-0.483-8.306s-0.659-5.347-1.187-7.075
		c-0.527-1.728-1.245-3.472-2.153-5.229c-0.909-1.758-2.036-3.09-3.384-3.999c-1.349-0.908-2.975-1.64-4.878-2.197
		c-1.904-0.556-4.117-0.835-6.636-0.835c-7.617,0-14.225,1.876-19.819,5.625c-5.596,3.75-9.039,7.998-10.327,12.744v67.764h-14.766
		v-73.037l-0.264-23.467h12.656l1.406,12.48c3.573-4.922,8.407-8.613,14.502-11.074C934.95,230.859,941.542,229.629,948.632,229.629
		z"/>
	<path fill="#222222" d="M1067.724,321.826c-3.047,2.871-6.914,5.054-11.602,6.548c-4.688,1.494-9.522,2.241-14.502,2.241
		c-7.266,0-13.887-1.362-19.863-4.087s-10.885-6.416-14.722-11.074c-3.838-4.658-6.798-10.005-8.877-16.04
		c-2.08-6.034-3.12-12.45-3.12-19.248c0.058-6.68,1.172-13.052,3.34-19.116c2.167-6.064,5.186-11.439,9.053-16.128
		c3.867-4.687,8.745-8.407,14.634-11.162c5.889-2.753,12.318-4.131,19.292-4.131c5.566,0,10.648,0.733,15.249,2.197
		c4.6,1.465,8.275,3.516,11.03,6.152l-3.691,10.459c-6.68-4.452-14.269-6.68-22.764-6.68c-8.848,0-16.246,3.678-22.192,11.03
		c-5.947,7.354-8.921,16.598-8.921,27.729c0,11.133,2.974,20.245,8.921,27.334c5.946,7.09,13.725,10.635,23.335,10.635
		c7.676,0,14.911-2.402,21.709-7.207L1067.724,321.826z"/>
	<path fill="#222222" d="M1123.183,330.615c-13.711,0-24.521-4.54-32.432-13.623c-7.91-9.082-11.865-21.415-11.865-37.002
		c0-14.414,3.955-26.323,11.865-35.728s18.135-14.282,30.674-14.634c11.953,0,21.401,4.19,28.345,12.568
		c6.943,8.38,10.415,19.718,10.415,34.014c0,0.47-0.03,1.538-0.088,3.208c-0.059,1.67-0.088,2.799-0.088,3.384h-66.006
		c0,10.665,2.782,19.19,8.35,25.576c5.566,6.387,12.656,9.58,21.27,9.58c10.898,0,21.094-3.222,30.586-9.668l4.57,10.723
		C1149.755,326.748,1137.89,330.615,1123.183,330.615z M1094.53,272.607h51.416c0-9.961-2.256-17.622-6.768-22.983
		c-4.513-5.361-10.459-8.042-17.842-8.042c-7.325,0-13.418,2.799-18.281,8.394C1098.191,255.571,1095.351,263.115,1094.53,272.607z"
		/>
</g>
<g>
	<path fill="#222222" d="M662.021,461.631h-71.807v61.172h-15.557V391.318h15.557v56.953h71.807v-56.953h15.557v131.484h-15.557
		V461.631z"/>
	<path fill="#222222" d="M787.353,474.551c0,6.738-0.981,13.126-2.944,19.16c-1.964,6.035-4.79,11.396-8.481,16.084
		c-3.691,4.688-8.394,8.394-14.106,11.118S749.735,525,742.704,525c-9.435,0-17.637-2.285-24.609-6.855
		c-6.974-4.57-12.188-10.604-15.645-18.105c-3.458-7.5-5.186-15.938-5.186-25.313c0-9.316,1.743-17.768,5.229-25.356
		c3.485-7.588,8.745-13.711,15.776-18.369s15.263-6.987,24.697-6.987c5.801,0,11.118,0.865,15.952,2.593
		c4.834,1.729,8.979,4.131,12.437,7.207c3.457,3.076,6.401,6.724,8.833,10.942c2.431,4.219,4.232,8.833,5.405,13.843
		C786.767,463.608,787.353,468.926,787.353,474.551z M772.06,474.727c0-5.331-0.527-10.239-1.582-14.722s-2.695-8.555-4.922-12.217
		c-2.228-3.661-5.288-6.518-9.185-8.569c-3.897-2.051-8.452-3.076-13.667-3.076c-4.98,0-9.448,1.085-13.403,3.252
		c-3.955,2.168-7.134,5.098-9.536,8.789c-2.403,3.691-4.219,7.822-5.449,12.393s-1.846,9.375-1.846,14.414
		c0,4.98,0.615,9.698,1.846,14.15c1.23,4.453,3.046,8.468,5.449,12.041c2.402,3.574,5.595,6.416,9.58,8.525
		c3.984,2.109,8.525,3.164,13.623,3.164c5.039,0,9.478-1.055,13.315-3.164c3.837-2.109,6.869-4.966,9.097-8.569
		c2.227-3.604,3.896-7.632,5.01-12.085C771.502,484.601,772.06,479.824,772.06,474.727z"/>
	<path fill="#222222" d="M803.612,489.58v-63.281h14.766v63.457c0,8.731,1.875,14.766,5.625,18.105
		c3.749,3.34,9.901,5.01,18.457,5.01c8.438,0,14.516-1.684,18.237-5.054c3.721-3.369,5.581-9.39,5.581-18.062v-63.457h14.766v63.281
		c0,12.599-3.223,21.651-9.668,27.158C864.93,522.246,855.292,525,842.46,525s-22.515-2.782-29.048-8.35
		C806.878,511.084,803.612,502.061,803.612,489.58z"/>
	<path fill="#222222" d="M965.683,496.963c-0.294,8.848-3.34,15.732-9.141,20.654S943.152,525,933.778,525
		c-6.855,0-13.33-0.909-19.424-2.725c-6.095-1.815-10.753-3.925-13.975-6.328l3.779-11.25c1.699,1.113,3.633,2.184,5.801,3.208
		c2.167,1.025,5.303,2.096,9.404,3.208c4.101,1.113,8.144,1.67,12.129,1.67h1.494c5.566,0,10.005-1.332,13.315-3.999
		c3.31-2.666,5.171-6.489,5.581-11.47v-1.055c0-7.207-4.864-12.158-14.59-14.854l-12.92-3.604
		c-9.083-2.519-15.483-6.006-19.204-10.459c-3.722-4.452-5.64-9.873-5.757-16.26c0-3.457,0.688-6.768,2.065-9.932
		c1.376-3.164,3.354-6.021,5.933-8.569c2.578-2.549,5.962-4.6,10.151-6.152c4.188-1.552,8.891-2.358,14.106-2.417
		c11.308,0,21.035,2.08,29.18,6.24l-3.516,10.635c-8.672-3.457-16.875-5.186-24.609-5.186c-5.508,0.059-9.962,1.437-13.359,4.131
		c-3.398,2.695-5.098,6.475-5.098,11.338c0.058,3.164,1.143,5.859,3.252,8.086c2.109,2.228,5.625,3.985,10.547,5.273l13.271,3.604
		c8.086,2.168,14.164,5.508,18.237,10.02c4.072,4.513,6.108,10.635,6.108,18.369V496.963z"/>
	<path fill="#222222" d="M1024.042,525c-13.711,0-24.521-4.54-32.432-13.623c-7.91-9.082-11.865-21.415-11.865-37.002
		c0-14.414,3.955-26.323,11.865-35.728s18.135-14.282,30.674-14.634c11.953,0,21.401,4.189,28.345,12.568
		c6.943,8.38,10.415,19.718,10.415,34.014c0,0.47-0.03,1.538-0.088,3.208c-0.059,1.67-0.088,2.799-0.088,3.384h-66.006
		c0,10.665,2.782,19.19,8.35,25.576c5.566,6.387,12.656,9.58,21.27,9.58c10.898,0,21.094-3.222,30.586-9.668l4.57,10.723
		C1050.614,521.133,1038.749,525,1024.042,525z M995.39,466.992h51.416c0-9.961-2.256-17.622-6.768-22.983
		c-4.513-5.361-10.459-8.042-17.842-8.042c-7.325,0-13.418,2.799-18.281,8.394C999.051,449.956,996.21,457.5,995.39,466.992z"/>
</g>
</svg>
