<?xml version="1.0" encoding="utf-8"?>
<!-- Generator: Adobe Illustrator 16.0.0, SVG Export Plug-In . SVG Version: 6.00 Build 0)  -->
<!DOCTYPE svg PUBLIC "-//W3C//DTD SVG 1.1//EN" "http://www.w3.org/Graphics/SVG/1.1/DTD/svg11.dtd">
<svg version="1.1" id="Layer_1" xmlns="http://www.w3.org/2000/svg" xmlns:xlink="http://www.w3.org/1999/xlink" x="0px" y="0px"
	 width="540px" height="525px" viewBox="0 0 540 525" enable-background="new 0 0 540 525" xml:space="preserve">
<path fill="#222222" d="M420,135V30c0-16.569-13.433-30-30-30H30C13.431,0,0,13.431,0,30v465c0,16.567,13.431,30,30,30h360
	c16.567,0,30-13.433,30-30V390h-90v30c0,8.284-6.715,15-15,15H105c-8.284,0-15-6.716-15-15V105c0-8.284,6.716-15,15-15h210
	c8.285,0,15,6.716,15,15v30H420z"/>
<path fill="#222222" d="M292.5,119.999H127.501c-4.143,0-7.5,3.357-7.5,7.5V285c0,4.143,3.357,7.499,7.5,7.499h101.25
	c2.071,0,3.75,1.681,3.75,3.751v44.999c0,2.071-1.679,3.75-3.75,3.75H191.25c-2.071,0-3.75-1.679-3.75-3.75V322.5h-67.499v75
	c0,4.142,3.357,7.5,7.5,7.5H292.5c4.143,0,7.5-3.358,7.5-7.5V240c0-4.143-3.357-7.5-7.5-7.5H191.25c-2.071,0-3.75-1.679-3.75-3.75
	l-0.001-45c0-2.071,1.679-3.75,3.75-3.75h37.501c2.071,0,3.75,1.679,3.75,3.75l0.001,18.75H300v-75.001
	C300,123.356,296.643,119.999,292.5,119.999z"/>
<polygon fill="#222222" points="420,300 420,360 330,360 330,165 420,165 420,225 450,225 450,0 540,0 540,525 450,525 450,300 "/>
</svg>
