<?xml version="1.0" encoding="utf-8"?>
<!-- Generator: Adobe Illustrator 16.0.0, SVG Export Plug-In . SVG Version: 6.00 Build 0)  -->
<!DOCTYPE svg PUBLIC "-//W3C//DTD SVG 1.1//EN" "http://www.w3.org/Graphics/SVG/1.1/DTD/svg11.dtd">
<svg version="1.1" id="Layer_1" xmlns="http://www.w3.org/2000/svg" xmlns:xlink="http://www.w3.org/1999/xlink" x="0px" y="0px"
	 width="350px" height="400px" viewBox="75 50 350 400" enable-background="new 75 50 350 400" xml:space="preserve">
<g id="Background" display="none">
	<rect display="inline" width="500" height="500"/>
</g>
<g id="CSH">
	<path fill="#FFFFFF" d="M405,350c11.028,0,20-8.973,20-20V70c0-11.028-8.972-20-20-20H95c-11.028,0-20,8.972-20,20v260
		c0,11.027,8.972,20,20,20h16.648v10H85c-2.761,0-5,2.238-5,5v80c0,2.762,2.239,5,5,5h330c2.762,0,5-2.238,5-5v-80
		c0-2.762-2.238-5-5-5h-28.352v-10H405z M110.016,425c0,2.762-2.239,5-5,5c-2.761,0-5-2.238-5-5v-40c0-2.762,2.239-5,5-5
		c2.761,0,5,2.238,5,5V425z M130.031,425c0,2.762-2.239,5-5,5c-2.761,0-5-2.238-5-5v-40c0-2.762,2.239-5,5-5c2.761,0,5,2.238,5,5
		V425z M150.047,425c0,2.762-2.239,5-5,5c-2.761,0-5-2.238-5-5v-40c0-2.762,2.239-5,5-5c2.761,0,5,2.238,5,5V425z M170.063,425
		c0,2.762-2.239,5-5,5s-5-2.238-5-5v-40c0-2.762,2.239-5,5-5s5,2.238,5,5V425z M190.078,425c0,2.762-2.239,5-5,5
		c-2.761,0-5-2.238-5-5v-40c0-2.762,2.239-5,5-5c2.761,0,5,2.238,5,5V425z M210.094,425c0,2.762-2.239,5-5,5c-2.761,0-5-2.238-5-5
		v-40c0-2.762,2.239-5,5-5c2.761,0,5,2.238,5,5V425z M394.984,380c2.762,0,5,2.238,5,5v40c0,2.762-2.238,5-5,5h-150
		c-2.761,0-5-2.238-5-5v-40c0-2.762,2.239-5,5-5H394.984z M250,300c-84.474,0-123.385-2.725-139.463-4.428
		c-5.492-0.582-10.695-5.75-11.347-11.234C97.522,270.301,95,239.984,95,185s2.522-85.301,4.19-99.337
		c0.652-5.484,5.854-10.653,11.347-11.235C126.615,72.724,165.526,70,250,70c84.474,0,123.385,2.724,139.463,4.428
		c5.492,0.582,10.695,5.75,11.347,11.235C402.478,99.699,405,130.016,405,185c0,54.986-2.521,85.305-4.188,99.342
		c-0.651,5.483-5.854,10.65-11.349,11.232C373.386,297.277,334.474,300,250,300z"/>
	<path fill="#FFFFFF" d="M387.979,99.54c-1.302-5.367-7.209-11.062-12.618-12.165C360.806,84.41,326.332,80,250,80
		s-110.805,4.41-125.358,7.375c-5.412,1.103-11.319,6.797-12.62,12.165C109.072,111.706,105,137.164,105,185
		s4.072,73.294,7.022,85.46c1.301,5.367,7.208,11.062,12.62,12.164C139.195,285.59,173.668,290,250,290s110.807-4.409,125.359-7.375
		c5.412-1.102,11.316-6.795,12.618-12.162C390.929,258.297,395,232.838,395,185C395,137.164,390.928,111.706,387.979,99.54z
		 M290,247c0,4.418-3.582,8-8,8h-96c-4.418,0-8-3.582-8-8V123c0-4.418,3.582-8,8-8h96c4.418,0,8,3.582,8,8v28h-24v-8
		c0-2.209-1.791-4-4-4h-56c-2.209,0-4,1.791-4,4v84c0,2.209,1.791,4,4,4h56c2.209,0,4-1.791,4-4v-8h24V247z M229,177h27
		c1.105,0,2,0.895,2,2v42c0,1.104-0.895,2-2,2h-44c-1.105,0-2-0.896-2-2v-20h18v5c0,0.552,0.448,1,1,1h10c0.552,0,1-0.448,1-1v-12
		c0-0.552-0.448-1-1-1h-27c-1.105,0-2-0.895-2-2v-42c0-1.104,0.895-2,2-2h44c1.105,0,2,0.895,2,2v20h-18v-5c0-0.552-0.448-1-1-1h-10
		c-0.552,0-1,0.448-1,1v12C228,176.552,228.448,177,229,177z M322,255h-24v-60h-8v16h-24v-52h24v16h8v-60h24V255z"/>
</g>
<g id=":_x29_" display="none">
	<g display="inline">
		<path fill="#222222" d="M405,350c11.028,0,20-8.973,20-20V70c0-11.028-8.972-20-20-20H95c-11.028,0-20,8.972-20,20v260
			c0,11.027,8.972,20,20,20h16.648v10H85c-2.761,0-5,2.238-5,5v80c0,2.762,2.239,5,5,5h330c2.762,0,5-2.238,5-5v-80
			c0-2.762-2.238-5-5-5h-28.352v-10H405z M110.016,425c0,2.762-2.239,5-5,5c-2.761,0-5-2.238-5-5v-40c0-2.762,2.239-5,5-5
			c2.761,0,5,2.238,5,5V425z M130.031,425c0,2.762-2.239,5-5,5c-2.761,0-5-2.238-5-5v-40c0-2.762,2.239-5,5-5c2.761,0,5,2.238,5,5
			V425z M150.047,425c0,2.762-2.239,5-5,5c-2.761,0-5-2.238-5-5v-40c0-2.762,2.239-5,5-5c2.761,0,5,2.238,5,5V425z M170.063,425
			c0,2.762-2.239,5-5,5s-5-2.238-5-5v-40c0-2.762,2.239-5,5-5s5,2.238,5,5V425z M190.078,425c0,2.762-2.239,5-5,5
			c-2.761,0-5-2.238-5-5v-40c0-2.762,2.239-5,5-5c2.761,0,5,2.238,5,5V425z M210.094,425c0,2.762-2.239,5-5,5c-2.761,0-5-2.238-5-5
			v-40c0-2.762,2.239-5,5-5c2.761,0,5,2.238,5,5V425z M394.984,380c2.762,0,5,2.238,5,5v40c0,2.762-2.238,5-5,5h-150
			c-2.761,0-5-2.238-5-5v-40c0-2.762,2.239-5,5-5H394.984z M250,300c-84.474,0-123.385-2.725-139.463-4.428
			c-5.492-0.582-10.695-5.75-11.347-11.234C97.522,270.302,95,239.984,95,185s2.522-85.301,4.19-99.337
			c0.652-5.484,5.854-10.653,11.347-11.235C126.615,72.724,165.526,70,250,70c84.474,0,123.385,2.724,139.463,4.428
			c5.492,0.582,10.695,5.75,11.347,11.235C402.478,99.699,405,130.016,405,185c0,54.986-2.521,85.305-4.188,99.341
			c-0.651,5.484-5.854,10.651-11.349,11.233C373.386,297.277,334.474,300,250,300z"/>
		<path fill="#222222" d="M387.979,99.54c-1.302-5.367-7.209-11.062-12.618-12.165C360.806,84.41,326.332,80,250,80
			s-110.805,4.41-125.358,7.375c-5.412,1.103-11.319,6.797-12.62,12.165C109.072,111.706,105,137.164,105,185
			s4.072,73.294,7.022,85.46c1.301,5.367,7.208,11.062,12.62,12.164C139.195,285.59,173.668,290,250,290
			s110.807-4.409,125.359-7.374c5.412-1.104,11.316-6.796,12.618-12.163C390.929,258.298,395,232.838,395,185
			C395,137.164,390.928,111.706,387.979,99.54z M223.796,222.071h-22.634v-22.634h22.634V222.071z M223.796,170.487h-22.634v-22.559
			h22.634V170.487z M275.902,254.818h-16.016c12.33-19.701,21.506-41.507,21.506-70.157c0-23.762-7.068-46.922-21.355-69.48h16.092
			c13.234,18.272,22.709,41.207,22.709,70.157C298.838,214.213,289.438,236.772,275.902,254.818z"/>
	</g>
</g>
<g id=":_x28_" display="none">
	<g display="inline">
		<path fill="#222222" d="M405,350c11.028,0,20-8.973,20-20V70c0-11.028-8.972-20-20-20H95c-11.028,0-20,8.972-20,20v260
			c0,11.027,8.972,20,20,20h16.648v10H85c-2.761,0-5,2.238-5,5v80c0,2.762,2.239,5,5,5h330c2.762,0,5-2.238,5-5v-80
			c0-2.762-2.238-5-5-5h-28.352v-10H405z M110.016,425c0,2.762-2.239,5-5,5c-2.761,0-5-2.238-5-5v-40c0-2.762,2.239-5,5-5
			c2.761,0,5,2.238,5,5V425z M130.031,425c0,2.762-2.239,5-5,5c-2.761,0-5-2.238-5-5v-40c0-2.762,2.239-5,5-5c2.761,0,5,2.238,5,5
			V425z M150.047,425c0,2.762-2.239,5-5,5c-2.761,0-5-2.238-5-5v-40c0-2.762,2.239-5,5-5c2.761,0,5,2.238,5,5V425z M170.063,425
			c0,2.762-2.239,5-5,5s-5-2.238-5-5v-40c0-2.762,2.239-5,5-5s5,2.238,5,5V425z M190.078,425c0,2.762-2.239,5-5,5
			c-2.761,0-5-2.238-5-5v-40c0-2.762,2.239-5,5-5c2.761,0,5,2.238,5,5V425z M210.094,425c0,2.762-2.239,5-5,5c-2.761,0-5-2.238-5-5
			v-40c0-2.762,2.239-5,5-5c2.761,0,5,2.238,5,5V425z M394.984,380c2.762,0,5,2.238,5,5v40c0,2.762-2.238,5-5,5h-150
			c-2.761,0-5-2.238-5-5v-40c0-2.762,2.239-5,5-5H394.984z M250,300c-84.474,0-123.385-2.725-139.463-4.428
			c-5.492-0.582-10.695-5.75-11.347-11.234C97.522,270.301,95,239.984,95,185s2.522-85.301,4.19-99.337
			c0.652-5.484,5.854-10.653,11.347-11.235C126.615,72.724,165.526,70,250,70c84.474,0,123.385,2.724,139.463,4.428
			c5.492,0.582,10.695,5.75,11.347,11.235C402.478,99.699,405,130.016,405,185c0,54.986-2.521,85.305-4.188,99.342
			c-0.651,5.483-5.854,10.65-11.349,11.232C373.386,297.277,334.474,300,250,300z"/>
		<path fill="#222222" d="M387.979,99.54c-1.302-5.367-7.209-11.062-12.618-12.165C360.806,84.41,326.332,80,250,80
			s-110.805,4.41-125.358,7.375c-5.412,1.103-11.319,6.797-12.62,12.165C109.072,111.706,105,137.164,105,185
			s4.072,73.294,7.022,85.46c1.301,5.367,7.208,11.062,12.62,12.164C139.195,285.59,173.668,290,250,290
			s110.807-4.409,125.359-7.375c5.412-1.102,11.316-6.795,12.618-12.162C390.929,258.297,395,232.838,395,185
			C395,137.164,390.928,111.706,387.979,99.54z M223.796,222.071h-22.634v-22.634h22.634V222.071z M223.796,170.487h-22.634v-22.559
			h22.634V170.487z M282.822,254.818c-13.535-18.046-22.938-40.605-22.938-69.48c0-28.95,9.477-51.885,22.709-70.157h16.094
			c-14.287,22.559-21.355,45.719-21.355,69.48c0,28.649,9.174,50.456,21.506,70.157H282.822z"/>
	</g>
</g>
<g id="Blank" display="none">
	<path display="inline" fill="#222222" d="M405,350c11.028,0,20-8.973,20-20V70c0-11.028-8.972-20-20-20H95
		c-11.028,0-20,8.972-20,20v260c0,11.027,8.972,20,20,20h16.648v10H85c-2.761,0-5,2.238-5,5v80c0,2.762,2.239,5,5,5h330
		c2.762,0,5-2.238,5-5v-80c0-2.762-2.238-5-5-5h-28.352v-10H405z M110.016,425c0,2.762-2.239,5-5,5c-2.761,0-5-2.238-5-5v-40
		c0-2.762,2.239-5,5-5c2.761,0,5,2.238,5,5V425z M130.031,425c0,2.762-2.239,5-5,5c-2.761,0-5-2.238-5-5v-40c0-2.762,2.239-5,5-5
		c2.761,0,5,2.238,5,5V425z M150.047,425c0,2.762-2.239,5-5,5c-2.761,0-5-2.238-5-5v-40c0-2.762,2.239-5,5-5c2.761,0,5,2.238,5,5
		V425z M170.063,425c0,2.762-2.239,5-5,5s-5-2.238-5-5v-40c0-2.762,2.239-5,5-5s5,2.238,5,5V425z M190.078,425c0,2.762-2.239,5-5,5
		c-2.761,0-5-2.238-5-5v-40c0-2.762,2.239-5,5-5c2.761,0,5,2.238,5,5V425z M210.094,425c0,2.762-2.239,5-5,5c-2.761,0-5-2.238-5-5
		v-40c0-2.762,2.239-5,5-5c2.761,0,5,2.238,5,5V425z M394.984,380c2.762,0,5,2.238,5,5v40c0,2.762-2.238,5-5,5h-150
		c-2.761,0-5-2.238-5-5v-40c0-2.762,2.239-5,5-5H394.984z M250,300c-84.474,0-123.385-2.725-139.463-4.428
		c-5.492-0.582-10.695-5.75-11.347-11.234C97.522,270.301,95,239.984,95,185s2.522-85.301,4.19-99.337
		c0.652-5.484,5.854-10.653,11.347-11.235C126.615,72.724,165.526,70,250,70c84.474,0,123.385,2.724,139.463,4.428
		c5.492,0.582,10.695,5.75,11.347,11.235C402.478,99.699,405,130.016,405,185c0,54.986-2.521,85.305-4.188,99.342
		c-0.651,5.483-5.854,10.65-11.349,11.232C373.386,297.277,334.474,300,250,300z"/>
	<path display="inline" fill="#222222" d="M375.359,282.625C360.807,285.591,326.332,290,250,290s-110.805-4.41-125.358-7.376
		c-5.412-1.103-11.319-6.797-12.62-12.164C109.072,258.294,105,232.836,105,185s4.072-73.294,7.022-85.46
		c1.301-5.367,7.208-11.062,12.62-12.165C139.195,84.41,173.668,80,250,80s110.806,4.41,125.358,7.375
		c5.409,1.103,11.316,6.797,12.618,12.165C390.928,111.706,395,137.164,395,185c0,47.838-4.071,73.297-7.021,85.463
		C386.678,275.83,380.771,281.523,375.359,282.625z"/>
</g>
</svg>
